<svg width="681" height="165" viewBox="0 0 681 165" fill="none" xmlns="http://www.w3.org/2000/svg">
<path d="M679.5 93.8166L565.5 121.099V43.7931L679.5 64.2547V93.8166Z" fill="#606205" stroke="black" stroke-width="3"/>
<rect x="2" y="1.99994" width="610" height="161" rx="70" fill="#01780D" stroke="black" stroke-width="4"/>
<mask id="mask0_2_38" style="mask-type:alpha" maskUnits="userSpaceOnUse" x="0" y="0" width="614" height="165">
<rect x="1.5" y="1.49994" width="611" height="162" rx="65.5" fill="#01780D" stroke="black" stroke-width="3"/>
</mask>
<g mask="url(#mask0_2_38)">
<line x1="0.0386459" y1="76.0001" x2="621.039" y2="80.0001" stroke="#0F670D" stroke-opacity="0.6" stroke-width="12"/>
<path d="M2.07002 51.4838C18.4399 8.43987 629.262 -8.4947 606.407 49.5149" stroke="#0F670D" stroke-opacity="0.6" stroke-width="12"/>
<path d="M4.12202 104.515C20.5615 147.559 633.958 164.502 611.005 106.492" stroke="#0F670D" stroke-opacity="0.6" stroke-width="12"/>
<path d="M161.864 109.36C161.864 107.504 162.408 105.36 163.496 102.928C164.584 100.432 165.768 98.7359 167.048 97.8399C169.48 99.6319 171.944 100.528 174.44 100.528L177.416 100.048C180.872 99.0239 182.664 96.2719 182.792 91.7919V67.3119H175.112C174.024 67.3119 173.256 65.9359 172.808 63.1839C172.616 61.8399 172.52 60.4639 172.52 59.0559C172.52 57.6479 172.616 56.2719 172.808 54.9279C173.256 52.1759 174.024 50.7999 175.112 50.7999H197.96C199.24 50.7999 200.2 51.1839 200.84 51.9519C201.48 52.6559 201.8 53.5199 201.8 54.5439V99.8559C201.8 106.128 199.688 110.896 195.464 114.16C191.304 117.424 186.28 119.056 180.392 119.056C174.568 119.056 170.024 118.192 166.76 116.464C163.496 114.736 161.864 112.368 161.864 109.36ZM243.514 119.1C233.247 119.1 224.85 115.727 218.324 108.98C211.87 102.233 208.644 92.4066 208.644 79.4999C208.644 66.5199 211.907 56.6933 218.434 50.0199C225.034 43.3466 233.504 40.0099 243.844 40.0099C254.257 40.0099 262.654 43.3099 269.034 49.9099C275.414 56.4366 278.604 66.3733 278.604 79.7199C278.604 92.9933 275.34 102.893 268.814 109.42C262.287 115.873 253.854 119.1 243.514 119.1ZM243.624 61.1299C240.104 61.1299 237.134 62.7433 234.714 65.9699C232.367 69.1966 231.194 73.7433 231.194 79.6099C231.194 85.4033 232.33 89.8766 234.604 93.0299C236.877 96.1099 239.847 97.6499 243.514 97.6499C247.254 97.6499 250.26 96.0733 252.534 92.9199C254.88 89.7666 256.054 85.2566 256.054 79.3899C256.054 73.5233 254.844 69.0133 252.424 65.8599C250.077 62.7066 247.144 61.1299 243.624 61.1299ZM330.192 30.9599C330.192 29.2533 334.8 28.3999 344.016 28.3999C353.317 28.3999 357.968 29.2533 357.968 30.9599V89.7119C357.968 98.4159 354.853 105.541 348.624 111.088C342.394 116.549 333.776 119.28 322.768 119.28C311.845 119.28 302.928 116.464 296.016 110.832C289.189 105.115 285.776 97.4346 285.776 87.7919V31.0879C285.776 29.3813 290.384 28.5279 299.6 28.5279C308.901 28.5279 313.552 29.3813 313.552 31.0879V88.8159C313.552 90.5226 314.448 91.8879 316.24 92.9119C318.117 93.9359 320.08 94.4479 322.128 94.4479C324.176 94.4479 326.01 93.9786 327.632 93.0399C329.338 92.1013 330.192 90.6933 330.192 88.8159V30.9599ZM403.561 71.5799C404.954 71.5799 405.651 74.1466 405.651 79.2799C405.651 80.8199 405.467 82.6533 405.101 84.7799C404.807 86.8333 404.221 87.8599 403.341 87.8599H389.371V98.8599H409.611C410.857 98.8599 411.701 100.473 412.141 103.7C412.361 105.093 412.471 106.597 412.471 108.21C412.471 109.75 412.251 111.767 411.811 114.26C411.371 116.753 410.637 118 409.611 118H371.991C369.204 118 367.811 116.863 367.811 114.59V43.8599C367.811 41.9533 368.654 40.9999 370.341 40.9999H409.721C411.261 40.9999 412.031 44.2633 412.031 50.7899C412.031 57.2433 411.261 60.4699 409.721 60.4699H389.371V71.5799H403.561ZM439.695 116.656C439.695 117.68 436.655 118.192 430.575 118.192C424.431 118.192 421.359 117.712 421.359 116.752V54.1599C421.359 51.9199 422.543 50.7999 424.911 50.7999H443.247C460.079 50.7999 468.495 57.3599 468.495 70.4799C468.495 74.4479 467.727 78.0639 466.191 81.3279C464.655 84.5279 462.479 87.0879 459.663 89.0079L471.759 109.168C471.247 110.704 469.583 112.464 466.767 114.448C462.927 117.2 459.759 118.576 457.263 118.576C454.767 118.576 452.911 117.68 451.695 115.888L442.671 94.8639H439.695V116.656ZM439.695 67.7919V82.1919H440.175C446.255 82.1919 449.295 79.6639 449.295 74.6079C449.295 72.3039 448.687 70.6079 447.471 69.5199C446.319 68.3679 444.399 67.7919 441.711 67.7919H439.695Z" fill="white"/>
<path d="M163.496 102.928L166.234 104.153L166.24 104.14L166.246 104.127L163.496 102.928ZM167.048 97.8399L168.828 95.4248L167.093 94.1466L165.328 95.3822L167.048 97.8399ZM174.44 100.528V103.528H174.68L174.918 103.49L174.44 100.528ZM177.416 100.048L177.894 103.01L178.084 102.979L178.268 102.924L177.416 100.048ZM182.792 91.7919L185.791 91.8776L185.792 91.8348V91.7919H182.792ZM182.792 67.3119H185.792V64.3119H182.792V67.3119ZM172.808 63.1839L169.838 63.6082L169.842 63.6371L169.847 63.666L172.808 63.1839ZM172.808 54.9279L169.847 54.4459L169.842 54.4748L169.838 54.5037L172.808 54.9279ZM200.84 51.9519L198.535 53.8725L198.577 53.9221L198.62 53.97L200.84 51.9519ZM195.464 114.16L193.63 111.786L193.621 111.793L193.612 111.8L195.464 114.16ZM166.76 116.464L165.356 119.115L166.76 116.464ZM164.864 109.36C164.864 108.068 165.249 106.355 166.234 104.153L160.758 101.703C159.567 104.365 158.864 106.94 158.864 109.36H164.864ZM166.246 104.127C167.257 101.808 168.165 100.72 168.768 100.298L165.328 95.3822C163.371 96.7518 161.911 99.0555 160.746 101.729L166.246 104.127ZM165.268 100.255C168.105 102.345 171.178 103.528 174.44 103.528V97.5279C172.71 97.5279 170.855 96.9186 168.828 95.4248L165.268 100.255ZM174.918 103.49L177.894 103.01L176.938 97.0862L173.962 97.5662L174.918 103.49ZM178.268 102.924C180.608 102.231 182.542 100.886 183.866 98.853C185.154 96.8749 185.717 94.4755 185.791 91.8776L179.793 91.7063C179.739 93.5884 179.342 94.8049 178.838 95.5789C178.37 96.2977 177.68 96.8409 176.564 97.1715L178.268 102.924ZM185.792 91.7919V67.3119H179.792V91.7919H185.792ZM182.792 64.3119H175.112V70.3119H182.792V64.3119ZM175.112 64.3119C175.524 64.3119 175.892 64.458 176.143 64.644C176.353 64.7998 176.395 64.9178 176.34 64.8178C176.287 64.7244 176.192 64.5163 176.082 64.1422C175.974 63.7753 175.866 63.3004 175.769 62.7019L169.847 63.666C170.091 65.1635 170.463 66.6008 171.1 67.742C171.751 68.9071 173.03 70.3119 175.112 70.3119V64.3119ZM175.778 62.7597C175.607 61.5613 175.52 60.3272 175.52 59.0559H169.52C169.52 60.6007 169.625 62.1186 169.838 63.6082L175.778 62.7597ZM175.52 59.0559C175.52 57.7847 175.607 56.5506 175.778 55.3522L169.838 54.5037C169.625 55.9933 169.52 57.5112 169.52 59.0559H175.52ZM175.769 55.41C175.866 54.8115 175.974 54.3366 176.082 53.9696C176.192 53.5956 176.287 53.3875 176.34 53.294C176.395 53.1941 176.353 53.3121 176.143 53.4679C175.892 53.6539 175.524 53.7999 175.112 53.7999V47.7999C173.03 47.7999 171.751 49.2048 171.1 50.3698C170.463 51.511 170.091 52.9483 169.847 54.4459L175.769 55.41ZM175.112 53.7999H197.96V47.7999H175.112V53.7999ZM197.96 53.7999C198.306 53.7999 198.474 53.8524 198.526 53.8734C198.55 53.8832 198.554 53.8878 198.547 53.8825C198.539 53.877 198.535 53.8716 198.535 53.8725L203.145 50.0314C201.782 48.3963 199.861 47.7999 197.96 47.7999V53.7999ZM198.62 53.97C198.718 54.0775 198.8 54.2042 198.8 54.5439H204.8C204.8 52.8357 204.242 51.2344 203.06 49.9339L198.62 53.97ZM198.8 54.5439V99.8559H204.8V54.5439H198.8ZM198.8 99.8559C198.8 105.382 196.985 109.193 193.63 111.786L197.298 116.534C202.391 112.598 204.8 106.874 204.8 99.8559H198.8ZM193.612 111.8C190.041 114.602 185.689 116.056 180.392 116.056V122.056C186.871 122.056 192.567 120.246 197.316 116.52L193.612 111.8ZM180.392 116.056C174.803 116.056 170.816 115.217 168.164 113.813L165.356 119.115C169.232 121.167 174.333 122.056 180.392 122.056V116.056ZM168.164 113.813C165.615 112.463 164.864 110.984 164.864 109.36H158.864C158.864 113.751 161.377 117.008 165.356 119.115L168.164 113.813ZM218.324 108.98L216.156 111.054L216.162 111.06L216.168 111.066L218.324 108.98ZM218.434 50.0199L216.301 47.9104L216.295 47.9163L216.289 47.9223L218.434 50.0199ZM269.034 49.9099L266.877 51.995L266.883 52.001L266.888 52.007L269.034 49.9099ZM268.814 109.42L270.923 111.553L270.929 111.547L270.935 111.541L268.814 109.42ZM234.714 65.9699L232.314 64.1699L232.301 64.1876L232.288 64.2054L234.714 65.9699ZM234.604 93.0299L232.17 94.7843L232.18 94.798L232.19 94.8115L234.604 93.0299ZM252.534 92.9199L250.127 91.1289L250.114 91.1471L250.1 91.1655L252.534 92.9199ZM252.424 65.8599L250.017 67.651L250.03 67.6688L250.044 67.6864L252.424 65.8599ZM243.514 116.1C233.976 116.1 226.385 112.999 220.48 106.894L216.168 111.066C223.315 118.455 232.518 122.1 243.514 122.1V116.1ZM220.492 106.906C214.749 100.902 211.644 91.9333 211.644 79.4999H205.644C205.644 92.8799 208.992 103.564 216.156 111.054L220.492 106.906ZM211.644 79.4999C211.644 66.9935 214.784 58.0418 220.579 52.1176L216.289 47.9223C209.03 55.3447 205.644 66.0464 205.644 79.4999H211.644ZM220.567 52.1295C226.543 46.0867 234.216 43.0099 243.844 43.0099V37.0099C232.792 37.0099 223.524 40.6065 216.301 47.9104L220.567 52.1295ZM243.844 43.0099C253.563 43.0099 261.14 46.0605 266.877 51.995L271.191 47.8249C264.167 40.5593 254.951 37.0099 243.844 37.0099V43.0099ZM266.888 52.007C272.512 57.7596 275.604 66.7966 275.604 79.7199H281.604C281.604 65.9499 278.316 55.1136 271.179 47.8129L266.888 52.007ZM275.604 79.7199C275.604 92.5478 272.45 101.541 266.692 107.299L270.935 111.541C278.231 104.245 281.604 93.4388 281.604 79.7199H275.604ZM266.704 107.287C260.812 113.113 253.173 116.1 243.514 116.1V122.1C254.535 122.1 263.762 118.634 270.923 111.553L266.704 107.287ZM243.624 58.1299C239.013 58.1299 235.206 60.3135 232.314 64.1699L237.114 67.7699C239.061 65.1731 241.195 64.1299 243.624 64.1299V58.1299ZM232.288 64.2054C229.43 68.1351 228.194 73.3939 228.194 79.6099H234.194C234.194 74.0926 235.305 70.2581 237.14 67.7345L232.288 64.2054ZM228.194 79.6099C228.194 85.7401 229.388 90.9251 232.17 94.7843L237.037 91.2755C235.273 88.8281 234.194 85.0664 234.194 79.6099H228.194ZM232.19 94.8115C235 98.6181 238.847 100.65 243.514 100.65V94.6499C240.848 94.6499 238.754 93.6018 237.017 91.2484L232.19 94.8115ZM243.514 100.65C248.262 100.65 252.156 98.5734 254.967 94.6743L250.1 91.1655C248.365 93.5731 246.246 94.6499 243.514 94.6499V100.65ZM254.94 94.711C257.82 90.841 259.054 85.5995 259.054 79.3899H253.054C253.054 84.9137 251.94 88.6922 250.127 91.1289L254.94 94.711ZM259.054 79.3899C259.054 73.1643 257.777 67.9081 254.804 64.0335L250.044 67.6864C251.91 70.1185 253.054 73.8823 253.054 79.3899H259.054ZM254.83 64.0689C251.994 60.257 248.212 58.1299 243.624 58.1299V64.1299C246.075 64.1299 248.16 65.1562 250.017 67.651L254.83 64.0689ZM348.624 111.088L350.601 113.344L350.61 113.336L350.619 113.328L348.624 111.088ZM296.016 110.832L294.089 113.132L294.105 113.145L294.121 113.158L296.016 110.832ZM316.24 92.9119L314.751 95.5167L314.777 95.5314L314.803 95.5456L316.24 92.9119ZM327.632 93.0399L326.186 90.4113L326.157 90.4272L326.128 90.4437L327.632 93.0399ZM333.192 30.9599C333.192 32.1407 332.328 32.5648 332.512 32.4624C332.665 32.3775 333.153 32.1825 334.194 31.9898C336.219 31.6148 339.451 31.3999 344.016 31.3999V25.3999C339.364 25.3999 335.684 25.6117 333.101 26.0901C331.838 26.3241 330.598 26.6624 329.599 27.2175C328.631 27.7551 327.192 28.9259 327.192 30.9599H333.192ZM344.016 31.3999C348.623 31.3999 351.889 31.6148 353.938 31.9907C354.991 32.1838 355.489 32.38 355.649 32.4681C355.847 32.577 354.968 32.1548 354.968 30.9599H360.968C360.968 28.9117 359.507 27.7429 358.542 27.2118C357.539 26.6598 356.294 26.3227 355.021 26.0892C352.419 25.6118 348.709 25.3999 344.016 25.3999V31.3999ZM354.968 30.9599V89.7119H360.968V30.9599H354.968ZM354.968 89.7119C354.968 97.6022 352.188 103.898 346.629 108.847L350.619 113.328C357.518 107.185 360.968 99.2296 360.968 89.7119H354.968ZM346.646 108.832C341.122 113.675 333.291 116.28 322.768 116.28V122.28C334.261 122.28 343.666 119.424 350.601 113.344L346.646 108.832ZM322.768 116.28C312.375 116.28 304.175 113.611 297.911 108.506L294.121 113.158C301.68 119.317 311.315 122.28 322.768 122.28V116.28ZM297.942 108.532C291.857 103.436 288.776 96.6305 288.776 87.7919H282.776C282.776 98.2387 286.52 106.793 294.089 113.132L297.942 108.532ZM288.776 87.7919V31.0879H282.776V87.7919H288.776ZM288.776 31.0879C288.776 32.2687 287.912 32.6928 288.096 32.5904C288.249 32.5055 288.737 32.3105 289.778 32.1178C291.803 31.7428 295.035 31.5279 299.6 31.5279V25.5279C294.948 25.5279 291.268 25.7397 288.685 26.2181C287.422 26.4521 286.182 26.7904 285.183 27.3455C284.215 27.8831 282.776 29.0539 282.776 31.0879H288.776ZM299.6 31.5279C304.207 31.5279 307.473 31.7428 309.522 32.1187C310.575 32.3118 311.073 32.508 311.233 32.5961C311.431 32.705 310.552 32.2828 310.552 31.0879H316.552C316.552 29.0397 315.091 27.8709 314.126 27.3398C313.123 26.7878 311.878 26.4507 310.605 26.2172C308.003 25.7398 304.293 25.5279 299.6 25.5279V31.5279ZM310.552 31.0879V88.8159H316.552V31.0879H310.552ZM310.552 88.8159C310.552 91.8411 312.255 94.0905 314.751 95.5167L317.728 90.3072C316.64 89.6854 316.552 89.2041 316.552 88.8159H310.552ZM314.803 95.5456C317.101 96.799 319.555 97.4479 322.128 97.4479V91.4479C320.604 91.4479 319.133 91.0729 317.676 90.2783L314.803 95.5456ZM322.128 97.4479C324.653 97.4479 327.015 96.8636 329.135 95.6362L326.128 90.4437C325.006 91.0936 323.698 91.4479 322.128 91.4479V97.4479ZM329.077 95.6686C330.307 94.9924 331.372 94.0649 332.117 92.8348C332.866 91.5991 333.192 90.2243 333.192 88.8159H327.192C327.192 89.2849 327.09 89.5528 326.986 89.725C326.878 89.903 326.663 90.1488 326.186 90.4113L329.077 95.6686ZM333.192 88.8159V30.9599H327.192V88.8159H333.192ZM405.101 84.7799L402.144 84.2702L402.137 84.3129L402.131 84.3557L405.101 84.7799ZM389.371 87.8599V84.8599H386.371V87.8599H389.371ZM389.371 98.8599H386.371V101.86H389.371V98.8599ZM412.141 103.7L409.168 104.105L409.172 104.137L409.177 104.168L412.141 103.7ZM411.811 114.26L408.856 113.739V113.739L411.811 114.26ZM389.371 60.4699V57.4699H386.371V60.4699H389.371ZM389.371 71.5799H386.371V74.5799H389.371V71.5799ZM403.561 74.5799C402.834 74.5799 402.338 74.1883 402.149 73.9555C402.032 73.8124 402.11 73.8369 402.233 74.2908C402.474 75.1794 402.651 76.781 402.651 79.2799H408.651C408.651 76.6455 408.479 74.3971 408.023 72.7191C407.798 71.8897 407.44 70.9517 406.801 70.1669C406.089 69.2924 404.984 68.5799 403.561 68.5799V74.5799ZM402.651 79.2799C402.651 80.5965 402.492 82.2506 402.144 84.2702L408.057 85.2897C408.442 83.0559 408.651 81.0434 408.651 79.2799H402.651ZM402.131 84.3557C402.071 84.771 402.004 85.0812 401.941 85.3033C401.876 85.5323 401.829 85.6131 401.836 85.6015C401.841 85.5917 401.949 85.4031 402.225 85.2097C402.537 84.9916 402.934 84.8599 403.341 84.8599V90.8599C405.221 90.8599 406.427 89.661 407.045 88.5784C407.617 87.5772 407.904 86.3662 408.07 85.2042L402.131 84.3557ZM403.341 84.8599H389.371V90.8599H403.341V84.8599ZM386.371 87.8599V98.8599H392.371V87.8599H386.371ZM389.371 101.86H409.611V95.8599H389.371V101.86ZM409.611 101.86C409.218 101.86 408.868 101.715 408.637 101.537C408.451 101.394 408.438 101.304 408.519 101.46C408.701 101.806 408.964 102.609 409.168 104.105L415.113 103.295C414.877 101.564 414.499 99.947 413.837 98.6802C413.164 97.3938 411.828 95.8599 409.611 95.8599V101.86ZM409.177 104.168C409.37 105.386 409.471 106.731 409.471 108.21H415.471C415.471 106.462 415.351 104.8 415.104 103.232L409.177 104.168ZM409.471 108.21C409.471 109.5 409.283 111.323 408.856 113.739L414.765 114.781C415.219 112.21 415.471 110 415.471 108.21H409.471ZM408.856 113.739C408.763 114.269 408.662 114.684 408.563 114.998C408.462 115.319 408.38 115.484 408.345 115.544C408.307 115.608 408.368 115.476 408.591 115.318C408.851 115.134 409.214 115 409.611 115V121C411.594 121 412.855 119.709 413.516 118.586C414.152 117.505 414.522 116.157 414.765 114.781L408.856 113.739ZM409.611 115H371.991V121H409.611V115ZM371.991 115C371.488 115 371.154 114.948 370.949 114.892C370.751 114.838 370.715 114.793 370.752 114.823C370.802 114.863 370.838 114.921 370.849 114.947C370.852 114.955 370.811 114.857 370.811 114.59H364.811C364.811 116.369 365.385 118.188 366.959 119.472C368.416 120.661 370.266 121 371.991 121V115ZM370.811 114.59V43.8599H364.811V114.59H370.811ZM370.811 43.8599C370.811 43.5947 370.841 43.4749 370.846 43.4572C370.848 43.4494 370.816 43.5603 370.69 43.7027C370.629 43.7715 370.559 43.8336 370.483 43.8849C370.408 43.9358 370.341 43.9675 370.292 43.986C370.197 44.0214 370.194 43.9999 370.341 43.9999V37.9999C368.933 37.9999 367.357 38.4147 366.196 39.7272C365.097 40.9696 364.811 42.5285 364.811 43.8599H370.811ZM370.341 43.9999H409.721V37.9999H370.341V43.9999ZM409.721 43.9999C408.85 43.9999 408.371 43.4696 408.283 43.3451C408.248 43.2956 408.377 43.4761 408.533 44.1364C408.836 45.4194 409.031 47.584 409.031 50.7899H415.031C415.031 47.4692 414.84 44.7388 414.373 42.7585C414.144 41.7871 413.792 40.7439 413.18 39.8785C412.514 38.9382 411.361 37.9999 409.721 37.9999V43.9999ZM409.031 50.7899C409.031 53.9585 408.836 56.0925 408.535 57.3536C408.38 58.0023 408.252 58.1736 408.292 58.1186C408.387 57.9863 408.865 57.4699 409.721 57.4699V63.4699C411.346 63.4699 412.498 62.5502 413.171 61.6113C413.787 60.7496 414.141 59.711 414.371 58.7463C414.84 56.7807 415.031 54.0747 415.031 50.7899H409.031ZM409.721 57.4699H389.371V63.4699H409.721V57.4699ZM386.371 60.4699V71.5799H392.371V60.4699H386.371ZM389.371 74.5799H403.561V68.5799H389.371V74.5799ZM466.191 81.3279L468.895 82.6261L468.9 82.6157L468.905 82.6053L466.191 81.3279ZM459.663 89.0079L457.973 86.5293L455.634 88.124L457.09 90.5514L459.663 89.0079ZM471.759 109.168L474.605 110.117L475.041 108.808L474.331 107.624L471.759 109.168ZM466.767 114.448L465.039 111.995L465.029 112.002L465.019 112.009L466.767 114.448ZM451.695 115.888L448.938 117.071L449.051 117.335L449.212 117.572L451.695 115.888ZM442.671 94.8639L445.427 93.6807L444.648 91.8639H442.671V94.8639ZM439.695 94.8639V91.8639H436.695V94.8639H439.695ZM439.695 67.7919V64.7919H436.695V67.7919H439.695ZM439.695 82.1919H436.695V85.1919H439.695V82.1919ZM447.471 69.5199L445.349 71.6413L445.408 71.7001L445.47 71.7557L447.471 69.5199ZM436.695 116.656C436.695 115.97 436.971 115.421 437.264 115.075C437.518 114.777 437.752 114.66 437.772 114.65C437.796 114.638 437.578 114.738 436.916 114.85C435.652 115.063 433.575 115.192 430.575 115.192V121.192C433.654 121.192 436.138 121.065 437.913 120.766C438.771 120.622 439.693 120.402 440.478 120.006C441.155 119.663 442.695 118.667 442.695 116.656H436.695ZM430.575 115.192C427.539 115.192 425.424 115.071 424.126 114.868C423.446 114.762 423.204 114.664 423.208 114.666C423.213 114.668 423.451 114.774 423.717 115.065C424.027 115.404 424.359 115.987 424.359 116.752H418.359C418.359 118.865 420.071 119.822 420.661 120.098C421.433 120.46 422.343 120.662 423.199 120.796C424.973 121.073 427.466 121.192 430.575 121.192V115.192ZM424.359 116.752V54.1599H418.359V116.752H424.359ZM424.359 54.1599C424.359 53.8559 424.4 53.7163 424.41 53.687C424.415 53.6739 424.39 53.7421 424.308 53.8193C424.23 53.8931 424.186 53.894 424.259 53.8711C424.344 53.8442 424.546 53.7999 424.911 53.7999V47.7999C423.304 47.7999 421.542 48.1767 420.185 49.4605C418.797 50.7739 418.359 52.5336 418.359 54.1599H424.359ZM424.911 53.7999H443.247V47.7999H424.911V53.7999ZM443.247 53.7999C451.355 53.7999 456.885 55.3941 460.338 58.0861C463.65 60.6672 465.495 64.6095 465.495 70.4799H471.495C471.495 63.2303 469.131 57.3326 464.027 53.3538C459.064 49.4857 451.97 47.7999 443.247 47.7999V53.7999ZM465.495 70.4799C465.495 74.051 464.806 77.2247 463.476 80.0505L468.905 82.6053C470.647 78.9032 471.495 74.8449 471.495 70.4799H465.495ZM463.486 80.0297C462.169 82.7744 460.334 84.9192 457.973 86.5293L461.353 91.4866C464.623 89.2566 467.141 86.2815 468.895 82.6261L463.486 80.0297ZM457.09 90.5514L469.186 110.711L474.331 107.624L462.235 87.4644L457.09 90.5514ZM468.913 108.219C468.732 108.762 467.809 110.044 465.039 111.995L468.494 116.9C471.356 114.884 473.761 112.646 474.605 110.117L468.913 108.219ZM465.019 112.009C461.3 114.675 458.781 115.576 457.263 115.576V121.576C460.736 121.576 464.553 119.725 468.514 116.886L465.019 112.009ZM457.263 115.576C455.585 115.576 454.743 115.037 454.177 114.203L449.212 117.572C451.079 120.323 453.948 121.576 457.263 121.576V115.576ZM454.451 114.705L445.427 93.6807L439.914 96.0472L448.938 117.071L454.451 114.705ZM442.671 91.8639H439.695V97.8639H442.671V91.8639ZM436.695 94.8639V116.656H442.695V94.8639H436.695ZM436.695 67.7919V82.1919H442.695V67.7919H436.695ZM439.695 85.1919H440.175V79.1919H439.695V85.1919ZM440.175 85.1919C443.556 85.1919 446.651 84.5004 448.933 82.6026C451.321 80.6167 452.295 77.7588 452.295 74.6079H446.295C446.295 76.5131 445.748 77.4472 445.096 77.9893C444.339 78.6195 442.873 79.1919 440.175 79.1919V85.1919ZM452.295 74.6079C452.295 71.8126 451.551 69.1449 449.471 67.2842L445.47 71.7557C445.823 72.071 446.295 72.7953 446.295 74.6079H452.295ZM449.592 67.3986C447.606 65.4124 444.703 64.7919 441.711 64.7919V70.7919C444.094 70.7919 445.031 71.3234 445.349 71.6413L449.592 67.3986ZM441.711 64.7919H439.695V70.7919H441.711V64.7919Z" fill="#144A13"/>
</g>
</svg>
