<svg width="323" height="181" viewBox="0 0 323 181" fill="none" xmlns="http://www.w3.org/2000/svg">
<path d="M93.6086 5C171.028 5.00006 323 5 323 5C322.23 73.2829 322.535 110.39 323 174C323 174 171.984 174 93.6086 174C15.2331 174 16.189 4.99994 93.6086 5Z" fill="#F7EF99" fill-opacity="0.52"/>
<path d="M89.8672 10L234.686 10L295.855 10L314.268 10L315.944 10C315.258 73.3633 315.527 109.971 315.963 169H315.834H315.653H315.47H315.283H315.094H314.902H314.706H314.508H314.308H314.104H313.897H313.688H313.476H313.261H313.043H312.823H312.599H312.373H312.145H311.913H311.679H311.442H311.202H310.96H310.715H310.467H310.217H309.964H309.708H309.45H309.189H308.925H308.659H308.39H308.119H307.845H307.569H307.29H307.008H306.724H306.437H306.148H305.856H305.562H305.265H304.966H304.665H304.361H304.054H303.745H303.434H303.12H302.804H302.485H302.164H301.841H301.515H301.187H300.857H300.524H300.189H299.852H299.512H299.17H298.826H298.479H298.13H297.779H297.426H297.071H296.713H296.353H295.991H295.626H295.26H294.891H294.52H294.147H293.772H293.395H293.015H292.634H292.25H291.864H291.477H291.087H290.695H290.301H289.905H289.507H289.107H288.704H288.3H287.894H287.486H287.076H286.664H286.25H285.834H285.416H284.997H284.575H284.151H283.726H283.298H282.869H282.438H282.005H281.57H281.134H280.695H280.255H279.813H279.369H278.924H278.476H278.027H277.576H277.124H276.669H276.213H275.756H275.296H274.835H274.372H273.907H273.441H272.973H272.504H272.033H271.56H271.086H270.61H270.132H269.653H269.173H268.69H268.207H267.721H267.235H266.746H266.256H265.765H265.272H264.778H264.282H263.785H263.286H262.786H262.284H261.781H261.277H260.771H260.264H259.755H259.246H258.734H258.222H257.708H257.192H256.676H256.158H255.639H255.118H254.596H254.073H253.549H253.024H252.497H251.969H251.44H250.909H250.378H249.845H249.311H248.776H248.239H247.702H247.163H246.624H246.083H245.541H244.998H244.454H243.908H243.362H242.815H242.267H241.717H241.167H240.615H240.063H239.51H238.955H238.4H237.843H237.286H236.728H236.169H235.609H235.048H234.486H233.923H233.359H232.795H232.229H231.663H231.096H230.528H229.959H229.389H228.819H228.248H227.676H227.103H226.53H225.955H225.38H224.805H224.228H223.651H223.073H222.494H221.915H221.335H220.755H220.173H219.592H219.009H218.426H217.842H217.258H216.673H216.087H215.501H214.915H214.327H213.74H213.151H212.563H211.973H211.384H210.793H210.202H209.611H209.02H208.427H207.835H207.242H206.648H206.054H205.46H204.865H204.27H203.675H203.079H202.483H201.887H201.29H200.693H200.095H199.498H198.9H198.301H197.703H197.104H196.505H195.906H195.306H194.707H194.107H193.506H192.906H192.306H191.705H191.104H190.503H189.902H189.301H188.699H188.098H187.496H186.895H186.293H185.691H185.089H184.487H183.885H183.283H182.681H182.079H181.477H180.875H180.273H179.671H179.07H178.468H177.866H177.264H176.663H176.061H175.46H174.858H174.257H173.656H173.055H172.455H171.854H171.254H170.653H170.053H169.453H168.854H168.254H167.655H167.056H166.458H165.859H165.261H164.663H164.066H163.469H162.872H162.275H161.679H161.083H160.487H159.892H159.297H158.703H158.109H157.515H156.922H156.329H155.737H155.145H154.554H153.963H153.372H152.782H152.193H151.604H151.015H150.427H149.84H149.253H148.667H148.081H147.496H146.911H146.327H145.744H145.161H144.579H143.997H143.416H142.836H142.257H141.678H141.1H140.522H139.945H139.369H138.794H138.219H137.646H137.073H136.5H135.929H135.358H134.788H134.219H133.651H133.083H132.516H131.951H131.386H130.822H130.258H129.696H129.135H128.574H128.015H127.456H126.898H126.342H125.786H125.231H124.677H124.124H123.573H123.022H122.472H121.923H121.375H120.829H120.283H119.738H119.195H118.653H118.111H117.571H117.032H116.494H115.957H115.422H114.887H114.354H113.822H113.291H112.761H112.233H111.705H111.179H110.655H110.131H109.609H109.088H108.568H108.049H107.532H107.016H106.502H105.989H105.477H104.966H104.457H103.95H103.443H102.938H102.435H101.932H101.432H100.932H100.435H99.9382H99.4432H98.9497H98.4578H97.9673H97.4783H96.9908H96.5049H96.0204H95.5376H95.0563H94.5765H94.0983H93.6217H93.1467H92.6733H92.2016H91.7314H91.2629H90.796H90.3308H89.8672C72.2283 169 58.9334 159.68 49.8345 144.964C40.6492 130.108 35.9423 109.963 36.0005 89.5142C36.0588 69.067 40.8801 48.9106 50.1018 34.0415C59.2446 19.2997 72.4887 9.99999 89.8672 10Z" fill="#F7EF99" fill-opacity="0.17" stroke="#F7EF99" stroke-width="10"/>
<path d="M36.0286 110.036C34.5914 109.158 32.912 108.185 31.064 107.212C25.2145 104.13 17.3194 100.844 9.98646 100.844C7.96955 100.844 6.15483 99.5597 4.71257 96.6571C3.27253 93.7588 2.49047 89.7113 2.50009 85.5116C2.5097 81.3127 3.31005 77.261 4.75716 74.3575C6.21125 71.44 8.01982 70.168 9.98646 70.168C13.7428 70.168 17.7957 69.0673 21.6468 67.5448C25.5263 66.011 29.3632 63.9833 32.7318 61.9838C35.0283 60.6207 37.1262 59.2594 38.8944 58.0568C37.3359 65.3345 36.0957 74.4876 35.4888 83.5851C34.8648 92.9394 34.8906 102.5 36.0286 110.036Z" fill="#F7EF99" fill-opacity="0.47" stroke="#F7EF99" stroke-width="5"/>
<line x1="317.5" y1="2.40413e-07" x2="317.5" y2="181" stroke="#F7EF99" stroke-width="11"/>
</svg>
