<svg width="198" height="216" viewBox="0 0 198 216" fill="none" xmlns="http://www.w3.org/2000/svg">
<g clip-path="url(#clip0_27_2)">
<rect x="3.68372" y="11.0298" width="194.316" height="193.021" fill="#A97B11"/>
<path d="M191 1.16558L180.886 11.655L169.216 0L157.546 11.6545L145.876 0L134.206 11.6545L122.536 0L110.866 11.6545L99.1953 0L87.5254 11.6545L75.8555 0L64.1856 11.6545L52.5152 0L40.8453 11.6545L29.175 0L17.5051 11.6545L7.00186 1.16558H0V214.835H7.00186L17.1158 204.345L28.7857 216L40.4556 204.345L52.1255 216L63.7954 204.345L75.4653 216L87.1352 204.345L98.8051 216L110.086 204.345L121.756 216L133.426 204.345L145.096 216L156.766 204.345L168.436 216L180.106 204.345L190.609 214.835H198V1.16558H191ZM190.222 203.18L180.497 193.468L168.827 205.122L157.157 193.468L145.487 204.734L133.817 193.079L122.147 204.734L110.477 193.079L98.8073 204.734L87.1374 193.079L75.4675 204.734L63.7976 193.079L52.1276 204.734L40.4577 193.079L28.7878 204.734L17.1179 193.079L7.39292 202.792V12.4317L17.1179 22.5323L28.7878 10.8778L40.4577 22.5323L52.1276 10.8778L63.7976 22.5323L75.4675 10.8778L87.1374 22.5323L98.8073 10.8778L110.477 22.5323L122.147 10.8778L133.817 22.5323L145.487 10.8778L157.157 22.5323L168.827 10.8778L180.497 22.5323L190.222 12.8201L190.222 203.18Z" fill="#000103"/>
<path d="M100.5 48C67.1511 48 40 74.927 40 108C40 141.073 67.1514 168 100.5 168C134.144 168 161 141.073 161 108C161 74.927 133.849 48 100.5 48ZM100.5 162.147C70.3975 162.147 45.9025 137.854 45.9025 108C45.9025 78.1466 70.3975 53.8537 100.5 53.8537C130.898 53.8537 155.098 78.1463 155.098 108C155.098 137.854 130.602 162.147 100.5 162.147Z" fill="#000103"/>
<path d="M100.5 63C75.5483 63 55 83.5483 55 108.5C55 133.452 75.5483 154 100.5 154C125.745 154 146 133.452 146 108.5C146 83.5483 125.452 63 100.5 63ZM100.5 148.129C78.7775 148.129 60.871 130.223 60.871 108.5C60.871 86.7775 78.7775 68.871 100.5 68.871C122.516 68.871 140.129 86.7775 140.129 108.5C140.129 130.223 122.223 148.129 100.5 148.129Z" fill="#000103"/>
<path d="M34.761 163.387L49.9629 147.737L52.8077 150.526L50.0172 167.022L50.1313 167.134L59.6993 157.284L62.9929 160.514L47.7911 176.164L44.9006 173.33L47.7369 156.893L47.6 156.759L38.0395 166.602L34.761 163.387Z" fill="#F6F8B8"/>
<path d="M43.9642 135.832C44.6927 137.349 45.0126 138.803 44.9241 140.195C44.8262 141.582 44.3524 142.844 43.5029 143.979C42.6471 145.117 41.4419 146.061 39.8874 146.811C38.3714 147.542 36.8994 147.89 35.4716 147.853C34.0437 147.816 32.7533 147.418 31.6003 146.657C30.4442 145.89 29.5189 144.783 28.8242 143.336C28.357 142.363 28.0788 141.381 27.9896 140.391C27.891 139.398 28.0013 138.438 28.3206 137.511C28.6368 136.578 29.1805 135.708 29.9518 134.903C30.7167 134.1 31.7261 133.396 32.9799 132.791L34.1026 132.25L40.0824 144.706L37.5492 145.928L33.4182 137.323C32.8297 137.607 32.3698 137.986 32.0385 138.462C31.7073 138.937 31.5229 139.463 31.4852 140.041C31.4381 140.616 31.5575 141.201 31.8433 141.797C32.1415 142.418 32.5497 142.899 33.0681 143.24C33.577 143.578 34.1359 143.766 34.7448 143.804C35.3473 143.844 35.9411 143.727 36.5263 143.453L38.9347 142.291C39.664 141.939 40.2295 141.501 40.6314 140.976C41.0302 140.445 41.2536 139.86 41.3017 139.221C41.3499 138.583 41.2095 137.921 40.8806 137.236C40.6624 136.782 40.3986 136.396 40.0893 136.08C39.78 135.764 39.4329 135.534 39.0479 135.388C38.663 135.243 38.2511 135.189 37.8125 135.227L36.2454 131.323C37.246 131.077 38.2283 131.088 39.1922 131.356C40.1467 131.621 41.037 132.13 41.8632 132.883C42.6799 133.632 43.3802 134.615 43.9642 135.832Z" fill="#F6F8B8"/>
<path d="M21.0061 111.671L24.3986 111.336L25.386 121.141L21.9935 121.476L21.0061 111.671ZM17.8678 119.636L17.4131 115.12L32.5948 113.62C33.0118 113.579 33.3306 113.483 33.551 113.333C33.7644 113.183 33.9056 112.991 33.9747 112.756C34.0431 112.514 34.062 112.24 34.0314 111.937C34.01 111.725 33.971 111.514 33.9143 111.306C33.8506 111.098 33.8024 110.939 33.7698 110.828L37.0591 109.785C37.1525 110.005 37.2658 110.315 37.399 110.715C37.5392 111.115 37.6494 111.608 37.7297 112.192C37.8817 113.276 37.8329 114.244 37.5833 115.097C37.3329 115.942 36.8806 116.626 36.2265 117.147C35.5723 117.669 34.7112 117.979 33.6433 118.077L17.8678 119.636Z" fill="#F6F8B8"/>
<path d="M24.7016 83.6778L28.003 84.5278L25.5311 94.3201L22.2297 93.4701L24.7016 83.6778ZM38.6423 95.3088L21.6503 90.9337C20.5017 90.638 19.6056 90.1689 18.962 89.5265C18.3202 88.8772 17.9092 88.1113 17.7291 87.2289C17.549 86.3465 17.5849 85.406 17.837 84.4075C18.0074 83.7326 18.2145 83.1296 18.4585 82.5984C18.7042 82.0603 18.9031 81.6641 19.0552 81.4099L22.1584 83.045C22.0599 83.203 21.9544 83.4032 21.842 83.6456C21.7313 83.8811 21.6429 84.1297 21.5768 84.3913C21.4134 85.0387 21.4509 85.5287 21.6892 85.8614C21.9206 86.1923 22.3046 86.4269 22.8411 86.565L39.7505 90.9188L38.6423 95.3088Z" fill="#F6F8B8"/>
<path d="M31.9887 57.4619L49.9789 69.8064L47.4313 73.5623L29.4412 61.2178L31.9887 57.4619Z" fill="#F6F8B8"/>
<path d="M62.4804 57.0973L52.9556 43.7914L56.6366 41.1368L66.1614 54.4426L62.4804 57.0973ZM53.5769 40.7427C53.0296 41.1373 52.4299 41.294 51.7778 41.2127C51.1272 41.1214 50.618 40.8188 50.2501 40.3048C49.8863 39.7966 49.7671 39.2214 49.8927 38.5792C50.0198 37.9271 50.357 37.4037 50.9042 37.0091C51.4515 36.6144 52.0504 36.4627 52.7009 36.554C53.3531 36.6353 53.8611 36.9301 54.2248 37.4383C54.5928 37.9523 54.7132 38.5353 54.586 39.1874C54.4605 39.8296 54.1241 40.348 53.5769 40.7427Z" fill="#F6F8B8"/>
<path d="M76.7006 31.3939L81.1406 36.0886L82.5568 29.7481L87.0387 28.4885L84.6884 37.6478L91.589 44.2073L87.1276 45.4611L82.4895 40.8884L80.9637 47.1933L76.451 48.4615L78.9142 39.2705L72.1879 32.6621L76.7006 31.3939Z" fill="#F6F8B8"/>
<path d="M126.594 49.5672C125.223 48.9438 124.151 48.1595 123.376 47.2141C122.601 46.2687 122.134 45.2528 121.975 44.1662C121.826 43.0761 121.985 42.0094 122.453 40.966C122.802 40.1883 123.266 39.5687 123.847 39.1071C124.427 38.6455 125.109 38.2885 125.891 38.0358C126.677 37.7767 127.552 37.562 128.515 37.3918L133.503 36.6056C134.143 36.5144 134.658 36.3468 135.047 36.1027C135.44 35.8521 135.729 35.5195 135.915 35.1047C136.092 34.7094 136.098 34.2712 135.932 33.7901C135.767 33.309 135.392 32.9394 134.807 32.6812C134.419 32.5048 134.043 32.4394 133.681 32.485C133.321 32.5241 132.997 32.6462 132.711 32.8514C132.434 33.053 132.219 33.3223 132.068 33.6593C131.882 34.0741 131.81 34.5483 131.851 35.0819C131.892 35.6154 131.999 36.2102 132.172 36.8662C132.347 37.5158 132.541 38.2203 132.753 38.98L137.314 54.092L133.009 52.1337L129.085 39.7926C128.832 38.9676 128.591 38.1167 128.361 37.2399C128.141 36.3595 128.023 35.4785 128.005 34.5968C127.991 33.7087 128.176 32.8368 128.559 31.9814C128.992 31.0158 129.605 30.2488 130.396 29.6805C131.195 29.1151 132.101 28.7941 133.116 28.7174C134.134 28.6342 135.186 28.8397 136.273 29.3336C137.333 29.8159 138.15 30.4491 138.725 31.2332C139.309 32.0138 139.648 32.8546 139.742 33.7557C139.846 34.6532 139.707 35.5264 139.327 36.3754C138.905 37.3151 138.29 38.0615 137.482 38.6145C136.683 39.164 135.732 39.5504 134.627 39.7738L129.262 40.8562C128.532 41.0081 127.94 41.2343 127.487 41.535C127.042 41.8322 126.734 42.1719 126.563 42.5543C126.35 43.0274 126.277 43.5048 126.341 43.9865C126.405 44.4683 126.601 44.9164 126.929 45.3308C127.26 45.7387 127.713 46.0735 128.288 46.3352C128.986 46.6528 129.746 46.8072 130.567 46.7984C131.398 46.786 132.223 46.6114 133.044 46.2745C133.874 45.9341 134.64 45.4321 135.342 44.7684C136.044 44.1047 136.618 43.2771 137.062 42.2856L140.485 43.8426C139.939 45.0609 139.314 46.0991 138.61 46.9572C137.909 47.8087 137.16 48.4901 136.363 49.0013C135.568 49.506 134.764 49.8502 133.95 50.0339C133.701 50.0689 133.461 50.1002 133.231 50.1281C133 50.1559 132.761 50.1873 132.511 50.2222C131.507 50.4832 130.49 50.5393 129.459 50.3904C128.435 50.2445 127.48 49.9701 126.594 49.5672Z" fill="#F6F8B8"/>
<path d="M176.379 83.7492L174.36 79.5426C174.867 79.2035 175.275 78.8137 175.583 78.3731C175.898 77.9295 176.117 77.4495 176.239 76.9331C176.361 76.4167 176.386 75.8767 176.312 75.3129C176.241 74.7556 176.071 74.1952 175.8 73.6317C175.312 72.6137 174.633 71.8488 173.765 71.337C172.904 70.8222 171.893 70.5881 170.734 70.6348C169.581 70.6784 168.323 71.0288 166.96 71.686C165.56 72.3618 164.482 73.1376 163.729 74.0136C162.979 74.8959 162.542 75.8321 162.418 76.8221C162.295 77.8122 162.471 78.8034 162.948 79.7958C163.215 80.3528 163.536 80.8328 163.911 81.2356C164.288 81.6448 164.707 81.9673 165.167 82.2028C165.633 82.4354 166.129 82.5745 166.655 82.6203C167.185 82.6726 167.735 82.6202 168.305 82.4632L170.306 86.679C169.351 87.0053 168.351 87.1528 167.304 87.1216C166.266 87.0938 165.243 86.8738 164.233 86.4617C163.234 86.053 162.301 85.4385 161.434 84.6184C160.577 83.8017 159.846 82.7626 159.24 81.5013C158.398 79.7469 158.042 77.987 158.171 76.2214C158.304 74.4622 158.929 72.8198 160.048 71.2943C161.171 69.7753 162.8 68.5004 164.936 67.4698C167.079 66.4362 169.096 65.9601 170.987 66.0417C172.877 66.1233 174.548 66.6659 175.999 67.6693C177.456 68.6697 178.599 70.0342 179.429 71.763C179.976 72.9027 180.324 74.0363 180.471 75.1638C180.621 76.2976 180.571 77.3905 180.319 78.4422C180.074 79.4909 179.624 80.465 178.969 81.3646C178.317 82.2707 177.454 83.0655 176.379 83.7492Z" fill="#F6F8B8"/>
<path d="M174.349 98.6504L164.935 99.5807L164.48 95.0652L186.193 92.9197L186.635 97.308L178.333 98.1283L178.353 98.3191C179.351 98.5915 180.163 99.1108 180.79 99.8767C181.424 100.642 181.803 101.643 181.928 102.88C182.042 104.01 181.893 105.02 181.483 105.91C181.081 106.806 180.444 107.533 179.572 108.09C178.708 108.654 177.64 108.995 176.367 109.114L165.998 110.138L165.543 105.623L175.106 104.678C176.111 104.586 176.866 104.254 177.372 103.683C177.879 103.119 178.087 102.378 177.994 101.459C177.932 100.844 177.747 100.313 177.438 99.8654C177.129 99.4249 176.71 99.0951 176.182 98.8762C175.661 98.6636 175.05 98.5883 174.349 98.6504Z" fill="#F6F8B8"/>
<path d="M164.032 122.646L179.878 126.726L178.768 131.126L162.921 127.046L164.032 122.646ZM181.363 129.462C181.528 128.808 181.887 128.303 182.438 127.946C182.995 127.598 183.579 127.503 184.191 127.66C184.797 127.816 185.258 128.181 185.575 128.754C185.897 129.335 185.975 129.953 185.81 130.607C185.645 131.261 185.284 131.763 184.727 132.111C184.176 132.467 183.597 132.568 182.992 132.412C182.38 132.254 181.913 131.885 181.591 131.303C181.274 130.73 181.198 130.117 181.363 129.462Z" fill="#F6F8B8"/>
<path d="M170.963 159.393L152.973 147.048L155.52 143.293L173.51 155.637L170.963 159.393Z" fill="#F6F8B8"/>
<path d="M149.49 180.153L136.79 162.412L140.471 159.758L153.171 177.499L149.49 180.153Z" fill="#F6F8B8"/>
</g>
<defs>
<clipPath id="clip0_27_2">
<rect width="198" height="216" fill="white"/>
</clipPath>
</defs>
</svg>
