<svg width="43" height="64" viewBox="0 0 43 64" fill="none" xmlns="http://www.w3.org/2000/svg">
<path d="M36.0284 58.0361C34.5912 57.1579 32.9118 56.1852 31.0639 55.2116C25.2144 52.1297 17.3193 48.8438 9.98641 48.8438C7.96953 48.8438 6.15481 47.5597 4.71256 44.6571C3.27252 41.7588 2.49047 37.7113 2.50009 33.5116C2.5097 29.3127 3.31005 25.261 4.75715 22.3575C6.21123 19.44 8.0198 18.168 9.98641 18.168C13.7428 18.168 17.7956 17.0673 21.6467 15.5448C25.5262 14.011 29.3631 11.9833 32.7317 9.98381C35.0281 8.62071 37.126 7.25939 38.8941 6.0568C37.3357 13.3345 36.0955 22.4876 35.4886 31.5851C34.8646 40.9394 34.8904 50.5005 36.0284 58.0361Z" fill="#F7EF99" fill-opacity="0.47" stroke="#F7EF99" stroke-width="5"/>
</svg>
