<svg width="144" height="140" viewBox="0 0 144 140" fill="none" xmlns="http://www.w3.org/2000/svg">
<ellipse cx="72.609" cy="70" rx="69.2318" ry="66.9893" fill="#F7EF99" fill-opacity="0.52"/>
<path d="M71.7647 0C32.2064 0 0 31.4149 0 70C0 108.585 32.2068 140 71.7647 140C111.673 140 143.529 108.585 143.529 70C143.529 31.4149 111.323 0 71.7647 0ZM71.7647 133.171C36.0573 133.171 7.00148 104.83 7.00148 70.0004C7.00148 35.1711 36.0573 6.82932 71.7647 6.82932C107.822 6.82932 136.528 35.1707 136.528 70C136.528 104.829 107.472 133.171 71.7647 133.171Z" fill="#F7EF99"/>
<path d="M71.7647 17.5C42.1673 17.5 17.793 41.4731 17.793 70.5833C17.793 99.6936 42.1673 123.667 71.7647 123.667C101.71 123.667 125.736 99.6936 125.736 70.5833C125.736 41.4731 101.362 17.5 71.7647 17.5ZM71.7647 116.817C45.9976 116.817 24.7571 95.9263 24.7571 70.5833C24.7571 45.2404 45.9976 24.3495 71.7647 24.3495C97.88 24.3495 118.772 45.2404 118.772 70.5833C118.772 95.9263 97.5318 116.817 71.7647 116.817Z" fill="#F7EF99"/>
</svg>
